<?xml version="1.0" encoding="utf-8"?>
<!-- Generator: Avocode 2.4.5 - http://avocode.com -->
<svg height="11" width="48" xmlns:xlink="http://www.w3.org/1999/xlink" xmlns="http://www.w3.org/2000/svg" viewBox="0 0 48 11">
    <path fill="#ecd7c3" fill-rule="evenodd" d="M 47.32 9.91 C 47.32 9.91 45.83 9.91 45.83 9.91 C 45.83 9.91 43.5 6.71 43.5 6.71 C 43.5 6.71 42.88 7.4 42.88 7.4 C 42.88 7.4 42.88 9.91 42.88 9.91 C 42.88 9.91 41.66 9.91 41.66 9.91 C 41.66 9.91 41.66 0.13 41.66 0.13 C 41.66 0.13 42.88 0.13 42.88 0.13 C 42.88 0.13 42.88 6.3 42.88 6.3 C 42.88 6.3 42.9 6.3 42.9 6.3 C 43.07 6.07 43.31 5.78 43.5 5.54 C 43.5 5.54 45.48 3.24 45.48 3.24 C 45.48 3.24 46.96 3.24 46.96 3.24 C 46.96 3.24 44.35 5.98 44.35 5.98 C 44.35 5.98 47.32 9.91 47.32 9.91 Z M 37.74 10.06 C 35.91 10.06 34.5 8.74 34.5 6.63 C 34.5 4.4 35.98 3.09 37.85 3.09 C 39.78 3.09 41.09 4.48 41.09 6.52 C 41.09 8.98 39.37 10.06 37.74 10.06 Z M 37.82 4 C 36.37 4 35.74 5.32 35.74 6.59 C 35.74 8.05 36.59 9.15 37.79 9.15 C 38.96 9.15 39.84 8.06 39.84 6.56 C 39.84 5.43 39.27 4 37.82 4 Z M 31.06 10.06 C 29.24 10.06 27.83 8.74 27.83 6.63 C 27.83 4.4 29.31 3.09 31.17 3.09 C 33.11 3.09 34.42 4.48 34.42 6.52 C 34.42 8.98 32.69 10.06 31.06 10.06 Z M 31.15 4 C 29.7 4 29.07 5.32 29.07 6.59 C 29.07 8.05 29.92 9.15 31.12 9.15 C 32.29 9.15 33.17 8.06 33.17 6.56 C 33.17 5.43 32.6 4 31.15 4 Z M 27.65 7.26 C 27.65 8.06 27.33 8.67 26.86 9.12 C 26.2 9.71 25.14 9.99 23.61 9.99 C 22.77 9.99 22.13 9.93 21.73 9.88 C 21.73 9.88 21.73 0.75 21.73 0.75 C 22.26 0.64 23.1 0.56 23.95 0.56 C 25.16 0.56 25.94 0.77 26.52 1.23 C 27.01 1.59 27.3 2.14 27.3 2.87 C 27.3 3.77 26.7 4.55 25.71 4.91 C 25.71 4.91 25.71 4.94 25.71 4.94 C 26.61 5.16 27.65 5.89 27.65 7.26 Z M 26.08 3 C 26.08 1.91 25.24 1.48 24.01 1.48 C 23.46 1.48 23.14 1.52 22.94 1.57 C 22.94 1.57 22.94 4.55 22.94 4.55 C 22.94 4.55 24.04 4.55 24.04 4.55 C 25.32 4.55 26.08 3.89 26.08 3 Z M 23.95 5.46 C 23.95 5.46 22.94 5.46 22.94 5.46 C 22.94 5.46 22.94 9 22.94 9 C 23.18 9.04 23.53 9.05 23.96 9.05 C 25.21 9.05 26.37 8.6 26.37 7.25 C 26.37 5.98 25.27 5.46 23.95 5.46 Z M 19.56 4.07 C 18.01 4.07 17.17 5.2 17.17 6.59 C 17.17 8.13 18.18 9.08 19.51 9.08 C 20.21 9.08 20.67 8.9 21.02 8.75 C 21.02 8.75 21.23 9.66 21.23 9.66 C 20.91 9.82 20.2 10.04 19.29 10.04 C 17.26 10.04 15.93 8.68 15.93 6.64 C 15.93 4.59 17.36 3.11 19.56 3.11 C 20.28 3.11 20.92 3.29 21.26 3.45 C 21.26 3.45 20.98 4.39 20.98 4.39 C 20.68 4.22 20.23 4.07 19.56 4.07 Z M 14.32 9.07 C 14.32 9.07 14.28 9.07 14.28 9.07 C 13.9 9.59 13.18 10.06 12.22 10.06 C 10.85 10.06 10.15 9.11 10.15 8.14 C 10.15 6.53 11.6 5.65 14.21 5.67 C 14.21 5.67 14.21 5.53 14.21 5.53 C 14.21 4.98 14.05 3.99 12.67 3.99 C 12.05 3.99 11.39 4.18 10.92 4.48 C 10.92 4.48 10.64 3.68 10.64 3.68 C 11.2 3.33 12.01 3.09 12.86 3.09 C 14.92 3.09 15.42 4.48 15.42 5.82 C 15.42 5.82 15.42 8.31 15.42 8.31 C 15.42 8.89 15.45 9.45 15.53 9.91 C 15.53 9.91 14.42 9.91 14.42 9.91 C 14.42 9.91 14.32 9.07 14.32 9.07 Z M 14.24 6.51 C 12.9 6.48 11.38 6.71 11.38 8.01 C 11.38 8.79 11.91 9.16 12.53 9.16 C 13.41 9.16 13.97 8.61 14.16 8.05 C 14.21 7.92 14.24 7.79 14.24 7.66 C 14.24 7.66 14.24 6.51 14.24 6.51 Z M 8.33 5.83 C 8.26 4.54 8.17 2.98 8.19 1.83 C 8.19 1.83 8.15 1.83 8.15 1.83 C 7.83 2.91 7.44 4.07 6.96 5.35 C 6.96 5.35 5.31 9.85 5.31 9.85 C 5.31 9.85 4.39 9.85 4.39 9.85 C 4.39 9.85 2.87 5.43 2.87 5.43 C 2.42 4.13 2.05 2.93 1.78 1.83 C 1.78 1.83 1.75 1.83 1.75 1.83 C 1.73 2.98 1.66 4.54 1.57 5.93 C 1.57 5.93 1.32 9.91 1.32 9.91 C 1.32 9.91 0.16 9.91 0.16 9.91 C 0.16 9.91 0.82 0.63 0.82 0.63 C 0.82 0.63 2.37 0.63 2.37 0.63 C 2.37 0.63 3.97 5.12 3.97 5.12 C 4.36 6.26 4.68 7.28 4.91 8.24 C 4.91 8.24 4.96 8.24 4.96 8.24 C 5.19 7.31 5.53 6.29 5.95 5.12 C 5.95 5.12 7.62 0.63 7.62 0.63 C 7.62 0.63 9.16 0.63 9.16 0.63 C 9.16 0.63 9.75 9.91 9.75 9.91 C 9.75 9.91 8.57 9.91 8.57 9.91 C 8.57 9.91 8.33 5.83 8.33 5.83 Z" />
</svg>